<svg id="Layer_1" data-name="Layer 1" xmlns="http://www.w3.org/2000/svg" viewBox="0 0 2000 2000"><defs><style>.cls-1{fill:#831496;}.cls-2{fill:#b3ce3e;}.cls-3{fill:#116605;}.cls-4{fill:#32a2a5;}.cls-5{fill:none;}</style></defs><path class="cls-1" d="M1040,0V80H960V60.41C960,27,995.82,0,1040,0Z" transform="translate(-0.01 -0.01)"/><path class="cls-2" d="M1120,80h-80V0h19.6C1093,0,1120,35.82,1120,80Z" transform="translate(-0.01 -0.01)"/><path class="cls-2" d="M800,80v80H720v-19.6C720,107,755.82,80,800,80Z" transform="translate(-0.01 -0.01)"/><path class="cls-2" d="M800,160V80s52.29,25,80,3.14C880,83.15,881.38,160,800,160Z" transform="translate(-0.01 -0.01)"/><rect class="cls-1" x="960" y="80" width="80" height="80"/><rect class="cls-2" x="1040" y="80" width="80" height="80"/><rect class="cls-2" x="1120" y="80" width="80" height="80"/><path class="cls-2" d="M1280,160h-80V80h19.6C1253,80,1280,115.82,1280,160Z" transform="translate(-0.01 -0.01)"/><path class="cls-2" d="M720,160v80H640v-19.6C640,187,675.82,160,720,160Z" transform="translate(-0.01 -0.01)"/><path class="cls-2" d="M720,240V160h80v19.6C800,213,764.19,240,720,240Z" transform="translate(-0.01 -0.01)"/><path class="cls-1" d="M960,160v80H880v-19.6C880,187,915.82,160,960,160Z" transform="translate(-0.01 -0.01)"/><path class="cls-1" d="M960,240V160h80v19.6C1040,213,1004.19,240,960,240Z" transform="translate(-0.01 -0.01)"/><path class="cls-2" d="M1200,160h80v80H1260.4C1227,240,1200,204.19,1200,160Z" transform="translate(-0.01 -0.01)"/><path class="cls-2" d="M1280,240V160s52.29,25,80,3.14C1360,163.15,1361.38,240,1280,240Z" transform="translate(-0.01 -0.01)"/><rect class="cls-2" x="640" y="240" width="80" height="80"/><path class="cls-1" d="M880,240h80s-25,52.29-3.14,80C956.86,320,880,321.38,880,240Z" transform="translate(-0.01 -0.01)"/><path class="cls-1" d="M1120,240v80s-52.29-25-80-3.15C1040,316.86,1038.63,240,1120,240Z" transform="translate(-0.01 -0.01)"/><path class="cls-1" d="M1120,320V240s52.29,25,80,3.14C1200,243.15,1201.38,320,1120,320Z" transform="translate(-0.01 -0.01)"/><rect class="cls-2" x="640" y="320" width="80" height="80"/><rect class="cls-2" x="720" y="320" width="80" height="80"/><path class="cls-2" d="M800,400V320s52.29,25,80,3.14C880,323.15,881.38,400,800,400Z" transform="translate(-0.01 -0.01)"/><path class="cls-3" d="M1000,320a40,40,0,1,1-40,40A40,40,0,0,1,1000,320Z" transform="translate(-0.01 -0.01)"/><path class="cls-2" d="M1360,400h-80s25-52.29,3.14-80C1283.15,320,1360,318.64,1360,400Z" transform="translate(-0.01 -0.01)"/><rect class="cls-2" x="640" y="400" width="80" height="80"/><path class="cls-2" d="M1080,400a40,40,0,1,1-40,40A40,40,0,0,1,1080,400Z" transform="translate(-0.01 -0.01)"/><path class="cls-2" d="M1280,400v80s-52.29-25-80-3.15C1200,476.86,1198.63,400,1280,400Z" transform="translate(-0.01 -0.01)"/><rect class="cls-2" x="1280" y="400" width="80" height="80"/><rect class="cls-2" x="640" y="480" width="80" height="80"/><path class="cls-4" d="M840,480a40,40,0,1,1-40,40A40,40,0,0,1,840,480Z" transform="translate(-0.01 -0.01)"/><path class="cls-1" d="M1040,560H960s25-52.29,3.14-80C963.15,480,1040,478.64,1040,560Z" transform="translate(-0.01 -0.01)"/><path class="cls-2" d="M1200,560h-80s25-52.29,3.14-80C1123.15,480,1200,478.64,1200,560Z" transform="translate(-0.01 -0.01)"/><path class="cls-2" d="M1280,480h80s-25,52.29-3.14,80C1356.86,560,1280,561.38,1280,480Z" transform="translate(-0.01 -0.01)"/><path class="cls-2" d="M640,560h80v80H700.4C667,640,640,604.19,640,560Z" transform="translate(-0.01 -0.01)"/><path class="cls-1" d="M800,640H720V560h19.6C773,560,800,595.82,800,640Z" transform="translate(-0.01 -0.01)"/><path class="cls-1" d="M960,560h80s-25,52.29-3.14,80C1036.86,640,960,641.38,960,560Z" transform="translate(-0.01 -0.01)"/><rect class="cls-2" x="1120" y="560" width="80" height="80"/><path class="cls-2" d="M1280,640h-80V560h19.6C1253,560,1280,595.82,1280,640Z" transform="translate(-0.01 -0.01)"/><path class="cls-1" d="M80,720H0s25-52.29,3.14-80C3.15,640,80,638.64,80,720Z" transform="translate(-0.01 -0.01)"/><path class="cls-2" d="M240,640v80s-52.29-25-80-3.15C160,716.86,158.63,640,240,640Z" transform="translate(-0.01 -0.01)"/><rect class="cls-2" x="240" y="640" width="80" height="80"/><rect class="cls-2" x="320" y="640" width="80" height="80"/><rect class="cls-2" x="400" y="640" width="80" height="80"/><path class="cls-2" d="M480,720V640s52.29,25,80,3.14C560,643.15,561.38,720,480,720Z" transform="translate(-0.01 -0.01)"/><rect class="cls-1" x="720" y="640" width="80" height="80"/><path class="cls-1" d="M880,720H800V640h19.6C853,640,880,675.82,880,720Z" transform="translate(-0.01 -0.01)"/><path class="cls-2" d="M1120,640v80h-80v-19.6C1040,667,1075.82,640,1120,640Z" transform="translate(-0.01 -0.01)"/><rect class="cls-2" x="1120" y="640" width="80" height="80"/><path class="cls-2" d="M1200,720V640h80v19.6C1280,693,1244.19,720,1200,720Z" transform="translate(-0.01 -0.01)"/><path class="cls-4" d="M1520,640v80s-52.29-25-80-3.15C1440,716.86,1438.63,640,1520,640Z" transform="translate(-0.01 -0.01)"/><rect class="cls-4" x="1520" y="640" width="80" height="80"/><rect class="cls-4" x="1600" y="640" width="80" height="80"/><rect class="cls-4" x="1680" y="640" width="80" height="80"/><path class="cls-4" d="M1760,720V640s52.29,25,80,3.14C1840,643.15,1841.38,720,1760,720Z" transform="translate(-0.01 -0.01)"/><path class="cls-1" d="M0,720H80v80H60.4C27,800,0,764.19,0,720Z" transform="translate(-0.01 -0.01)"/><path class="cls-1" d="M80,800V720s52.29,25,80,3.14C160,723.15,161.38,800,80,800Z" transform="translate(-0.01 -0.01)"/><rect class="cls-2" x="240" y="720" width="80" height="80"/><rect class="cls-2" x="320" y="720" width="80" height="80"/><rect class="cls-2" x="400" y="720" width="80" height="80"/><path class="cls-2" d="M640,720v80s-52.29-25-80-3.15C560,796.86,558.63,720,640,720Z" transform="translate(-0.01 -0.01)"/><rect class="cls-2" x="640" y="720" width="80" height="80"/><rect class="cls-1" x="720" y="720" width="80" height="80"/><rect class="cls-1" x="800" y="720" width="80" height="80"/><path class="cls-2" d="M1040,720h80s-25,52.29-3.14,80C1116.86,800,1040,801.38,1040,720Z" transform="translate(-0.01 -0.01)"/><path class="cls-4" d="M1320,720a40,40,0,1,1-40,40A40,40,0,0,1,1320,720Z" transform="translate(-0.01 -0.01)"/><rect class="cls-4" x="1520" y="720" width="80" height="80"/><path class="cls-2" d="M240,800v80H160v-19.6C160,827,195.82,800,240,800Z" transform="translate(-0.01 -0.01)"/><path class="cls-2" d="M240,880V800h80v19.6C320,853,284.19,880,240,880Z" transform="translate(-0.01 -0.01)"/><path class="cls-2" d="M400,800h80v80H460.4C427,880,400,844.19,400,800Z" transform="translate(-0.01 -0.01)"/><path class="cls-2" d="M480,880V800s52.29,25,80,3.14C560,803.15,561.38,880,480,880Z" transform="translate(-0.01 -0.01)"/><path class="cls-2" d="M640,800h80s-25,52.29-3.14,80C716.86,880,640,881.38,640,800Z" transform="translate(-0.01 -0.01)"/><rect class="cls-1" x="800" y="800" width="80" height="80"/><path class="cls-4" d="M1280,880h-80s25-52.29,3.14-80C1203.15,800,1280,798.64,1280,880Z" transform="translate(-0.01 -0.01)"/><path class="cls-4" d="M1440,880h-80s25-52.29,3.14-80C1363.15,800,1440,798.64,1440,880Z" transform="translate(-0.01 -0.01)"/><path class="cls-4" d="M1520,800h80s-25,52.29-3.14,80C1596.86,880,1520,881.38,1520,800Z" transform="translate(-0.01 -0.01)"/><path class="cls-2" d="M160,880v80s-52.29-25-80-3.15C80,956.86,78.63,880,160,880Z" transform="translate(-0.01 -0.01)"/><path class="cls-2" d="M160,960V880h80v19.6C240,933,204.19,960,160,960Z" transform="translate(-0.01 -0.01)"/><path class="cls-1" d="M360,880a40,40,0,1,1-40,40A40,40,0,0,1,360,880Z" transform="translate(-0.01 -0.01)"/><path class="cls-1" d="M800,880h80s-25,52.29-3.14,80C876.86,960,800,961.38,800,880Z" transform="translate(-0.01 -0.01)"/><rect class="cls-4" x="1200" y="880" width="80" height="80"/><rect class="cls-4" x="1280" y="880" width="80" height="80"/><rect class="cls-4" x="1360" y="880" width="80" height="80"/><path class="cls-4" d="M1520,960h-80V880h19.6C1493,880,1520,915.82,1520,960Z" transform="translate(-0.01 -0.01)"/><path class="cls-1" d="M280,960a40,40,0,1,1-40,40A40,40,0,0,1,280,960Z" transform="translate(-0.01 -0.01)"/><path class="cls-1" d="M480,960v80H400v-19.6C400,987,435.82,960,480,960Z" transform="translate(-0.01 -0.01)"/><path class="cls-1" d="M480,1040V960s52.29,25,80,3.14C560,963.15,561.38,1040,480,1040Z" transform="translate(-0.01 -0.01)"/><path class="cls-2" d="M680,960a40,40,0,1,1-40,40A40,40,0,0,1,680,960Z" transform="translate(-0.01 -0.01)"/><path class="cls-1" d="M920,960a40,40,0,1,1-40,40A40,40,0,0,1,920,960Z" transform="translate(-0.01 -0.01)"/><path class="cls-4" d="M1200,960h80v80H1260.4C1227,1040,1200,1004.19,1200,960Z" transform="translate(-0.01 -0.01)"/><rect class="cls-4" x="1280" y="960" width="80" height="80"/><rect class="cls-4" x="1360" y="960" width="80" height="80"/><path class="cls-4" d="M1440,1040V960h80v19.6C1520,1013,1484.19,1040,1440,1040Z" transform="translate(-0.01 -0.01)"/><path class="cls-2" d="M80,1040v80H0v-19.6C0,1067,35.82,1040,80,1040Z" transform="translate(-0.01 -0.01)"/><path class="cls-2" d="M80,1120v-80s52.29,25,80,3.14C160,1043.15,161.38,1120,80,1120Z" transform="translate(-0.01 -0.01)"/><path class="cls-1" d="M400,1040v80H320v-19.6C320,1067,355.82,1040,400,1040Z" transform="translate(-0.01 -0.01)"/><path class="cls-1" d="M400,1120v-80h80v19.6C480,1093,444.19,1120,400,1120Z" transform="translate(-0.01 -0.01)"/><path class="cls-2" d="M600,1040a40,40,0,1,1-40,40A40,40,0,0,1,600,1040Z" transform="translate(-0.01 -0.01)"/><path class="cls-3" d="M800,1040v80s-52.29-25-80-3.15C720,1116.86,718.63,1040,800,1040Z" transform="translate(-0.01 -0.01)"/><path class="cls-3" d="M800,1120v-80s52.29,25,80,3.14C880,1043.15,881.38,1120,800,1120Z" transform="translate(-0.01 -0.01)"/><path class="cls-3" d="M1040,1040v80s-52.29-25-80-3.15C960,1116.86,958.63,1040,1040,1040Z" transform="translate(-0.01 -0.01)"/><path class="cls-3" d="M1120,1120h-80v-80h19.6C1093,1040,1120,1075.82,1120,1120Z" transform="translate(-0.01 -0.01)"/><path class="cls-4" d="M1280,1040h80v80H1340.4C1307,1120,1280,1084.19,1280,1040Z" transform="translate(-0.01 -0.01)"/><path class="cls-4" d="M1360,1120v-80h80v19.6C1440,1093,1404.19,1120,1360,1120Z" transform="translate(-0.01 -0.01)"/><rect class="cls-2" y="1120" width="80" height="80"/><path class="cls-1" d="M320,1120h80s-25,52.29-3.14,80C396.86,1200,320,1201.38,320,1120Z" transform="translate(-0.01 -0.01)"/><path class="cls-2" d="M520,1120a40,40,0,1,1-40,40A40,40,0,0,1,520,1120Z" transform="translate(-0.01 -0.01)"/><path class="cls-3" d="M720,1200H640s25-52.29,3.14-80C643.15,1120,720,1118.64,720,1200Z" transform="translate(-0.01 -0.01)"/><rect class="cls-3" x="1040" y="1120" width="80" height="80"/><rect class="cls-3" x="1120" y="1120" width="80" height="80"/><path class="cls-3" d="M1200,1200v-80s52.29,25,80,3.14C1280,1123.15,1281.38,1200,1200,1200Z" transform="translate(-0.01 -0.01)"/><rect class="cls-2" y="1200" width="80" height="80"/><path class="cls-2" d="M240,1280H160s25-52.29,3.14-80C163.15,1200,240,1198.64,240,1280Z" transform="translate(-0.01 -0.01)"/><path class="cls-2" d="M440,1200a40,40,0,1,1-40,40A40,40,0,0,1,440,1200Z" transform="translate(-0.01 -0.01)"/><rect class="cls-4" x="640" y="1200" width="80" height="80"/><path class="cls-3" d="M880,1280H800s25-52.29,3.14-80C803.15,1200,880,1198.64,880,1280Z" transform="translate(-0.01 -0.01)"/><path class="cls-3" d="M1040,1200v80H960v-19.6C960,1227,995.82,1200,1040,1200Z" transform="translate(-0.01 -0.01)"/><path class="cls-3" d="M1040,1280v-80h80v19.6C1120,1253,1084.19,1280,1040,1280Z" transform="translate(-0.01 -0.01)"/><path class="cls-2" d="M0,1280H80s-25,52.29-3.14,80C76.86,1360,0,1361.38,0,1280Z" transform="translate(-0.01 -0.01)"/><path class="cls-2" d="M160,1280h80s-25,52.29-3.14,80C236.86,1360,160,1361.38,160,1280Z" transform="translate(-0.01 -0.01)"/><path class="cls-2" d="M360,1280a40,40,0,1,1-40,40A40,40,0,0,1,360,1280Z" transform="translate(-0.01 -0.01)"/><path class="cls-3" d="M560,1280v80s-52.29-25-80-3.15C480,1356.86,478.63,1280,560,1280Z" transform="translate(-0.01 -0.01)"/><rect class="cls-4" x="560" y="1280" width="80" height="80"/><rect class="cls-4" x="640" y="1280" width="80" height="80"/><rect class="cls-4" x="720" y="1280" width="80" height="80"/><path class="cls-3" d="M800,1360v-80h80v19.6C880,1333,844.19,1360,800,1360Z" transform="translate(-0.01 -0.01)"/><path class="cls-3" d="M960,1280h80s-25,52.29-3.14,80C1036.86,1360,960,1361.38,960,1280Z" transform="translate(-0.01 -0.01)"/><path class="cls-4" d="M640,1360h80v80H700.4C667,1440,640,1404.19,640,1360Z" transform="translate(-0.01 -0.01)"/><rect class="cls-4" x="720" y="1360" width="80" height="80"/><rect class="cls-4" x="720" y="1440" width="80" height="80"/><rect class="cls-4" x="800" y="1440" width="80" height="80"/><rect class="cls-4" x="880" y="1440" width="80" height="80"/><path class="cls-4" d="M960,1520v-80s52.29,25,80,3.14C1040,1443.15,1041.38,1520,960,1520Z" transform="translate(-0.01 -0.01)"/><path class="cls-4" d="M720,1520v80H640v-19.6C640,1547,675.82,1520,720,1520Z" transform="translate(-0.01 -0.01)"/><path class="cls-4" d="M720,1600v-80h80v19.6C800,1573,764.19,1600,720,1600Z" transform="translate(-0.01 -0.01)"/><rect class="cls-4" x="880" y="1520" width="80" height="80"/><rect class="cls-4" x="640" y="1600" width="80" height="80"/><path class="cls-4" d="M880,1600v80H800v-19.6C800,1627,835.82,1600,880,1600Z" transform="translate(-0.01 -0.01)"/><path class="cls-4" d="M880,1680v-80h80v19.6C960,1653,924.19,1680,880,1680Z" transform="translate(-0.01 -0.01)"/><rect class="cls-4" x="640" y="1680" width="80" height="80"/><rect class="cls-4" x="720" y="1680" width="80" height="80"/><path class="cls-4" d="M800,1760v-80h80v19.6C880,1733,844.19,1760,800,1760Z" transform="translate(-0.01 -0.01)"/><path class="cls-4" d="M1040,1680v80s-52.29-25-80-3.15C960,1756.86,958.63,1680,1040,1680Z" transform="translate(-0.01 -0.01)"/><rect class="cls-4" x="1040" y="1680" width="80" height="80"/><path class="cls-4" d="M1200,1760h-80v-80h19.6C1173,1680,1200,1715.82,1200,1760Z" transform="translate(-0.01 -0.01)"/><path class="cls-4" d="M640,1760h80v80H700.4C667,1840,640,1804.19,640,1760Z" transform="translate(-0.01 -0.01)"/><rect class="cls-4" x="720" y="1760" width="80" height="80"/><rect class="cls-4" x="1040" y="1760" width="80" height="80"/><path class="cls-4" d="M1120,1840v-80h80v19.6C1200,1813,1164.19,1840,1120,1840Z" transform="translate(-0.01 -0.01)"/><path class="cls-4" d="M720,1840h80v80H780.4C747,1920,720,1884.19,720,1840Z" transform="translate(-0.01 -0.01)"/><path class="cls-4" d="M800,1920v-80s52.29,25,80,3.14C880,1843.15,881.38,1920,800,1920Z" transform="translate(-0.01 -0.01)"/><path class="cls-4" d="M1040,1840v80H960v-19.6C960,1867,995.82,1840,1040,1840Z" transform="translate(-0.01 -0.01)"/><path class="cls-4" d="M1040,1920v-80h80v19.6C1120,1893,1084.19,1920,1040,1920Z" transform="translate(-0.01 -0.01)"/><path class="cls-3" d="M680,1920a40,40,0,1,1-40,40A40,40,0,0,1,680,1920Z" transform="translate(-0.01 -0.01)"/><path class="cls-4" d="M960,1920h80s-25,52.29-3.14,80C1036.86,2000,960,2001.38,960,1920Z" transform="translate(-0.01 -0.01)"/><path class="cls-3" d="M1720,800a40,40,0,1,1-40,40A40,40,0,0,1,1720,800Z" transform="translate(-0.01 -0.01)"/><path class="cls-3" d="M1680,960h-80s25-52.29,3.14-80C1603.15,880,1680,878.64,1680,960Z" transform="translate(-0.01 -0.01)"/><path class="cls-3" d="M1600,960h80s-25,52.29-3.14,80C1676.86,1040,1600,1041.38,1600,960Z" transform="translate(-0.01 -0.01)"/><path class="cls-3" d="M1600,1120h-80s25-52.29,3.14-80C1523.15,1040,1600,1038.64,1600,1120Z" transform="translate(-0.01 -0.01)"/><path class="cls-3" d="M1760,1120h-80s25-52.29,3.14-80C1683.15,1040,1760,1038.64,1760,1120Z" transform="translate(-0.01 -0.01)"/><path class="cls-3" d="M1520,1120v80s-52.29-25-80-3.15C1440,1196.86,1438.63,1120,1520,1120Z" transform="translate(-0.01 -0.01)"/><rect class="cls-3" x="1520" y="1120" width="80" height="80"/><rect class="cls-3" x="1600" y="1120" width="80" height="80"/><path class="cls-3" d="M1680,1200v-80h80v19.6C1760,1173,1724.19,1200,1680,1200Z" transform="translate(-0.01 -0.01)"/><path class="cls-3" d="M1440,1280h-80s25-52.29,3.14-80C1363.15,1200,1440,1198.64,1440,1280Z" transform="translate(-0.01 -0.01)"/><rect class="cls-3" x="1520" y="1200" width="80" height="80"/><rect class="cls-3" x="1600" y="1200" width="80" height="80"/><path class="cls-3" d="M1200,1280v80s-52.29-25-80-3.15C1120,1356.86,1118.63,1280,1200,1280Z" transform="translate(-0.01 -0.01)"/><rect class="cls-3" x="1200" y="1280" width="80" height="80"/><rect class="cls-3" x="1280" y="1280" width="80" height="80"/><rect class="cls-3" x="1360" y="1280" width="80" height="80"/><rect class="cls-3" x="1440" y="1280" width="80" height="80"/><rect class="cls-3" x="1520" y="1280" width="80" height="80"/><rect class="cls-3" x="1600" y="1280" width="80" height="80"/><path class="cls-2" d="M1800,1280a40,40,0,1,1-40,40A40,40,0,0,1,1800,1280Z" transform="translate(-0.01 -0.01)"/><rect class="cls-3" x="1280" y="1360" width="80" height="80"/><rect class="cls-3" x="1600" y="1360" width="80" height="80"/><path class="cls-3" d="M1680,1440v-80s52.29,25,80,3.14C1760,1363.15,1761.38,1440,1680,1440Z" transform="translate(-0.01 -0.01)"/><rect class="cls-3" x="1280" y="1440" width="80" height="80"/><path class="cls-3" d="M1480,1440a40,40,0,1,1-40,40A40,40,0,0,1,1480,1440Z" transform="translate(-0.01 -0.01)"/><rect class="cls-3" x="1600" y="1440" width="80" height="80"/><path class="cls-3" d="M1160,1520a40,40,0,1,1-40,40A40,40,0,0,1,1160,1520Z" transform="translate(-0.01 -0.01)"/><rect class="cls-3" x="1280" y="1520" width="80" height="80"/><rect class="cls-3" x="1600" y="1520" width="80" height="80"/><path class="cls-3" d="M1680,1600v-80s52.29,25,80,3.14C1760,1523.15,1761.38,1600,1680,1600Z" transform="translate(-0.01 -0.01)"/><path class="cls-3" d="M1280,1600v80s-52.29-25-80-3.15C1200,1676.86,1198.63,1600,1280,1600Z" transform="translate(-0.01 -0.01)"/><rect class="cls-3" x="1280" y="1600" width="80" height="80"/><rect class="cls-3" x="1360" y="1600" width="80" height="80"/><rect class="cls-3" x="1440" y="1600" width="80" height="80"/><rect class="cls-3" x="1520" y="1600" width="80" height="80"/><rect class="cls-3" x="1600" y="1600" width="80" height="80"/><rect class="cls-3" x="1280" y="1680" width="80" height="80"/><rect class="cls-3" x="1360" y="1680" width="80" height="80"/><path class="cls-3" d="M1440,1760v-80h80v19.6C1520,1733,1484.19,1760,1440,1760Z" transform="translate(-0.01 -0.01)"/><rect class="cls-3" x="1280" y="1760" width="80" height="80"/><path class="cls-3" d="M1360,1840v-80h80v19.6C1440,1813,1404.19,1840,1360,1840Z" transform="translate(-0.01 -0.01)"/><path class="cls-3" d="M1280,1840v80s-52.29-25-80-3.15C1200,1916.86,1198.63,1840,1280,1840Z" transform="translate(-0.01 -0.01)"/><path class="cls-3" d="M1280,1920v-80h80v19.6C1360,1893,1324.19,1920,1280,1920Z" transform="translate(-0.01 -0.01)"/><path class="cls-1" d="M1160,1920a40,40,0,1,1-40,40A40,40,0,0,1,1160,1920Z" transform="translate(-0.01 -0.01)"/><path class="cls-4" d="M1920,800h-80s25-52.29,3.14-80C1843.15,720,1920,718.64,1920,800Z" transform="translate(-0.01 -0.01)"/><path class="cls-4" d="M1840,800h80v80H1900.4C1867,880,1840,844.19,1840,800Z" transform="translate(-0.01 -0.01)"/><path class="cls-4" d="M2000,880h-80V800h19.6C1973,800,2000,835.82,2000,880Z" transform="translate(-0.01 -0.01)"/><rect class="cls-4" x="1920" y="880" width="80" height="80"/><path class="cls-4" d="M1840,960v80s-52.29-25-80-3.15C1760,1036.86,1758.63,960,1840,960Z" transform="translate(-0.01 -0.01)"/><rect class="cls-4" x="1840" y="960" width="80" height="80"/><path class="cls-4" d="M1920,1040V960h80v19.6C2000,1013,1964.19,1040,1920,1040Z" transform="translate(-0.01 -0.01)"/><rect class="cls-4" x="1840" y="1040" width="80" height="80"/><path class="cls-4" d="M1840,1120h80v80H1900.4C1867,1200,1840,1164.19,1840,1120Z" transform="translate(-0.01 -0.01)"/><path class="cls-4" d="M2000,1200h-80v-80h19.6C1973,1120,2000,1155.82,2000,1200Z" transform="translate(-0.01 -0.01)"/><path class="cls-4" d="M1920,1200h80s-25,52.29-3.14,80C1996.86,1280,1920,1281.38,1920,1200Z" transform="translate(-0.01 -0.01)"/><path class="cls-4" d="M1840,1440v80s-52.29-25-80-3.15C1760,1516.86,1758.63,1440,1840,1440Z" transform="translate(-0.01 -0.01)"/><rect class="cls-4" x="1840" y="1440" width="80" height="80"/><path class="cls-4" d="M2000,1520h-80v-80h19.6C1973,1440,2000,1475.82,2000,1520Z" transform="translate(-0.01 -0.01)"/><rect class="cls-4" x="1920" y="1520" width="80" height="80"/><path class="cls-4" d="M1840,1600v80h-80v-19.6C1760,1627,1795.82,1600,1840,1600Z" transform="translate(-0.01 -0.01)"/><rect class="cls-4" x="1840" y="1600" width="80" height="80"/><rect class="cls-4" x="1920" y="1600" width="80" height="80"/><path class="cls-4" d="M1600,1680h80v80H1660.4C1627,1760,1600,1724.19,1600,1680Z" transform="translate(-0.01 -0.01)"/><rect class="cls-4" x="1680" y="1680" width="80" height="80"/><rect class="cls-4" x="1760" y="1680" width="80" height="80"/><rect class="cls-4" x="1840" y="1680" width="80" height="80"/><rect class="cls-4" x="1920" y="1680" width="80" height="80"/><rect class="cls-4" x="1680" y="1760" width="80" height="80"/><rect class="cls-4" x="1920" y="1760" width="80" height="80"/><path class="cls-4" d="M1520,1840v80h-80v-19.6C1440,1867,1475.82,1840,1520,1840Z" transform="translate(-0.01 -0.01)"/><rect class="cls-4" x="1520" y="1840" width="80" height="80"/><rect class="cls-4" x="1600" y="1840" width="80" height="80"/><rect class="cls-4" x="1680" y="1840" width="80" height="80"/><rect class="cls-4" x="1920" y="1840" width="80" height="80"/><path class="cls-4" d="M1440,1920h80v80H1500.4C1467,2000,1440,1964.19,1440,1920Z" transform="translate(-0.01 -0.01)"/><rect class="cls-4" x="1520" y="1920" width="80" height="80"/><rect class="cls-4" x="1600" y="1920" width="80" height="80"/><rect class="cls-4" x="1680" y="1920" width="80" height="80"/><rect class="cls-4" x="1760" y="1920" width="80" height="80"/><rect class="cls-4" x="1840" y="1920" width="80" height="80"/><path class="cls-4" d="M1920,2000v-80h80v19.6C2000,1973,1964.19,2000,1920,2000Z" transform="translate(-0.01 -0.01)"/><rect class="cls-5" x="84" y="84" width="392" height="392" rx="49.25"/><path class="cls-1" d="M476,0H49.26A49.25,49.25,0,0,0,0,49.26v461.5A49.25,49.25,0,0,0,49.26,560h461.5A49.25,49.25,0,0,0,560,510.76V49.26A49.25,49.25,0,0,0,510.76,0ZM426.76,476H133.26A49.25,49.25,0,0,1,84,426.76V133.26A49.25,49.25,0,0,1,133.26,84h293.5A49.25,49.25,0,0,1,476,133.26v293.5A49.25,49.25,0,0,1,426.76,476Z" transform="translate(-0.01 -0.01)"/><rect class="cls-5" x="1524" y="84" width="392" height="392" rx="49.25"/><path class="cls-1" d="M1916,0H1489.26A49.25,49.25,0,0,0,1440,49.26v461.5A49.25,49.25,0,0,0,1489.26,560h461.5A49.25,49.25,0,0,0,2000,510.76V49.26A49.25,49.25,0,0,0,1950.76,0Zm-49.25,476h-293.5A49.25,49.25,0,0,1,1524,426.76V133.26A49.25,49.25,0,0,1,1573.26,84h293.5A49.25,49.25,0,0,1,1916,133.26v293.5A49.25,49.25,0,0,1,1866.76,476Z" transform="translate(-0.01 -0.01)"/><rect class="cls-5" x="84" y="1524" width="392" height="392" rx="49.25"/><path class="cls-1" d="M476,1440H49.26A49.25,49.25,0,0,0,0,1489.26v461.5A49.25,49.25,0,0,0,49.26,2000h461.5A49.25,49.25,0,0,0,560,1950.76h0v-461.5A49.25,49.25,0,0,0,510.76,1440Zm-49.25,476H133.26A49.25,49.25,0,0,1,84,1866.76v-293.5A49.25,49.25,0,0,1,133.26,1524h293.5A49.25,49.25,0,0,1,476,1573.26v293.5A49.25,49.25,0,0,1,426.76,1916Z" transform="translate(-0.01 -0.01)"/><rect class="cls-2" x="160" y="160" width="240" height="240" rx="49.25"/><rect class="cls-2" x="1600" y="160" width="240" height="240" rx="49.25"/><rect class="cls-2" x="160" y="1600" width="240" height="240" rx="49.25"/></svg>