<svg id="Layer_1" data-name="Layer 1" xmlns="http://www.w3.org/2000/svg" viewBox="0 0 2000.01 2000.01"><defs><style>.cls-1{fill:#831496;}.cls-2{fill:#b3ce3e;}.cls-3{fill:#116605;}.cls-4{fill:#32a2a5;}.cls-5{fill:none;}</style></defs><path class="cls-1" d="M1200,160v80h-80v-19.6C1120,187,1155.81,160,1200,160Z" transform="translate(-159.99 -159.99)"/><path class="cls-2" d="M1280,240h-80V160h19.6C1253,160,1280,195.81,1280,240Z" transform="translate(-159.99 -159.99)"/><path class="cls-2" d="M960,240v80H880v-19.6C880,267,915.81,240,960,240Z" transform="translate(-159.99 -159.99)"/><path class="cls-2" d="M960,320V240s52.29,25,80,3.14C1040,243.14,1041.37,320,960,320Z" transform="translate(-159.99 -159.99)"/><rect class="cls-1" x="960.01" y="80.01" width="80" height="80"/><rect class="cls-2" x="1040.01" y="80.01" width="80" height="80"/><rect class="cls-2" x="1120.01" y="80.01" width="80" height="80"/><path class="cls-2" d="M1440,320h-80V240h19.6C1413,240,1440,275.81,1440,320Z" transform="translate(-159.99 -159.99)"/><path class="cls-2" d="M880,320v80H800v-19.6C800,347,835.81,320,880,320Z" transform="translate(-159.99 -159.99)"/><path class="cls-2" d="M880,400V320h80v19.6C960,373,924.18,400,880,400Z" transform="translate(-159.99 -159.99)"/><path class="cls-1" d="M1120,320v80h-80v-19.6C1040,347,1075.81,320,1120,320Z" transform="translate(-159.99 -159.99)"/><path class="cls-1" d="M1120,400V320h80v19.6C1200,373,1164.18,400,1120,400Z" transform="translate(-159.99 -159.99)"/><path class="cls-2" d="M1360,320h80v80h-19.61C1387,400,1360,364.18,1360,320Z" transform="translate(-159.99 -159.99)"/><path class="cls-2" d="M1440,400V320s52.29,25,80,3.14C1520,323.14,1521.37,400,1440,400Z" transform="translate(-159.99 -159.99)"/><rect class="cls-2" x="640.01" y="240.01" width="80" height="80"/><path class="cls-1" d="M1040,400h80s-25,52.29-3.14,80C1116.85,480,1040,481.37,1040,400Z" transform="translate(-159.99 -159.99)"/><path class="cls-1" d="M1280,400v80s-52.29-25-80-3.15C1200,476.85,1198.62,400,1280,400Z" transform="translate(-159.99 -159.99)"/><path class="cls-1" d="M1280,480V400s52.29,25,80,3.14C1360,403.14,1361.37,480,1280,480Z" transform="translate(-159.99 -159.99)"/><rect class="cls-2" x="640.01" y="320.01" width="80" height="80"/><rect class="cls-2" x="720.01" y="320.01" width="80" height="80"/><path class="cls-2" d="M960,560V480s52.29,25,80,3.14C1040,483.14,1041.37,560,960,560Z" transform="translate(-159.99 -159.99)"/><path class="cls-3" d="M1160,480a40,40,0,1,1-40,40A40,40,0,0,1,1160,480Z" transform="translate(-159.99 -159.99)"/><path class="cls-2" d="M1520,560h-80s25-52.29,3.14-80C1443.14,480,1520,478.63,1520,560Z" transform="translate(-159.99 -159.99)"/><rect class="cls-2" x="640.01" y="400.01" width="80" height="80"/><path class="cls-2" d="M1240,560a40,40,0,1,1-40,40A40,40,0,0,1,1240,560Z" transform="translate(-159.99 -159.99)"/><path class="cls-2" d="M1440,560v80s-52.29-25-80-3.15C1360,636.85,1358.62,560,1440,560Z" transform="translate(-159.99 -159.99)"/><rect class="cls-2" x="1280.01" y="400.01" width="80" height="80"/><rect class="cls-2" x="640.01" y="480.01" width="80" height="80"/><path class="cls-4" d="M1000,640a40,40,0,1,1-40,40A40,40,0,0,1,1000,640Z" transform="translate(-159.99 -159.99)"/><path class="cls-1" d="M1200,720h-80s25-52.29,3.14-80C1123.14,640,1200,638.63,1200,720Z" transform="translate(-159.99 -159.99)"/><path class="cls-2" d="M1360,720h-80s25-52.29,3.14-80C1283.14,640,1360,638.63,1360,720Z" transform="translate(-159.99 -159.99)"/><path class="cls-2" d="M1440,640h80s-25,52.29-3.14,80C1516.85,720,1440,721.37,1440,640Z" transform="translate(-159.99 -159.99)"/><path class="cls-2" d="M800,720h80v80H860.39C827,800,800,764.18,800,720Z" transform="translate(-159.99 -159.99)"/><path class="cls-1" d="M960,800H880V720h19.6C933,720,960,755.81,960,800Z" transform="translate(-159.99 -159.99)"/><path class="cls-1" d="M1120,720h80s-25,52.29-3.14,80C1196.85,800,1120,801.37,1120,720Z" transform="translate(-159.99 -159.99)"/><rect class="cls-2" x="1120.01" y="560.01" width="80" height="80"/><path class="cls-2" d="M1440,800h-80V720h19.6C1413,720,1440,755.81,1440,800Z" transform="translate(-159.99 -159.99)"/><path class="cls-1" d="M240,880H160s25-52.29,3.14-80C163.14,800,240,798.63,240,880Z" transform="translate(-159.99 -159.99)"/><path class="cls-2" d="M400,800v80s-52.29-25-80-3.15C320,876.85,318.62,800,400,800Z" transform="translate(-159.99 -159.99)"/><rect class="cls-2" x="240.01" y="640.01" width="80" height="80"/><rect class="cls-2" x="320.01" y="640.01" width="80" height="80"/><rect class="cls-2" x="400.01" y="640.01" width="80" height="80"/><path class="cls-2" d="M640,880V800s52.29,25,80,3.14C720,803.14,721.37,880,640,880Z" transform="translate(-159.99 -159.99)"/><rect class="cls-1" x="720.01" y="640.01" width="80" height="80"/><path class="cls-1" d="M1040,880H960V800h19.6C1013,800,1040,835.81,1040,880Z" transform="translate(-159.99 -159.99)"/><path class="cls-2" d="M1280,800v80h-80v-19.6C1200,827,1235.81,800,1280,800Z" transform="translate(-159.99 -159.99)"/><rect class="cls-2" x="1120.01" y="640.01" width="80" height="80"/><path class="cls-2" d="M1360,880V800h80v19.6C1440,853,1404.18,880,1360,880Z" transform="translate(-159.99 -159.99)"/><path class="cls-4" d="M1680,800v80s-52.29-25-80-3.15C1600,876.85,1598.62,800,1680,800Z" transform="translate(-159.99 -159.99)"/><rect class="cls-4" x="1520.01" y="640.01" width="80" height="80"/><rect class="cls-4" x="1600.01" y="640.01" width="80" height="80"/><rect class="cls-4" x="1680.01" y="640.01" width="80" height="80"/><path class="cls-4" d="M1920,880V800s52.29,25,80,3.14C2000,803.14,2001.37,880,1920,880Z" transform="translate(-159.99 -159.99)"/><path class="cls-1" d="M160,880h80v80H220.39C187,960,160,924.18,160,880Z" transform="translate(-159.99 -159.99)"/><path class="cls-1" d="M240,960V880s52.29,25,80,3.14C320,883.14,321.37,960,240,960Z" transform="translate(-159.99 -159.99)"/><rect class="cls-2" x="240.01" y="720.01" width="80" height="80"/><rect class="cls-2" x="320.01" y="720.01" width="80" height="80"/><rect class="cls-2" x="400.01" y="720.01" width="80" height="80"/><path class="cls-2" d="M800,880v80s-52.29-25-80-3.15C720,956.85,718.62,880,800,880Z" transform="translate(-159.99 -159.99)"/><rect class="cls-2" x="640.01" y="720.01" width="80" height="80"/><rect class="cls-1" x="720.01" y="720.01" width="80" height="80"/><rect class="cls-1" x="800.01" y="720.01" width="80" height="80"/><path class="cls-2" d="M1200,880h80s-25,52.29-3.14,80C1276.85,960,1200,961.37,1200,880Z" transform="translate(-159.99 -159.99)"/><path class="cls-4" d="M1480,880a40,40,0,1,1-40,40A40,40,0,0,1,1480,880Z" transform="translate(-159.99 -159.99)"/><rect class="cls-4" x="1520.01" y="720.01" width="80" height="80"/><path class="cls-2" d="M400,960v80H320v-19.6C320,987,355.81,960,400,960Z" transform="translate(-159.99 -159.99)"/><path class="cls-2" d="M400,1040V960h80v19.6C480,1013,444.18,1040,400,1040Z" transform="translate(-159.99 -159.99)"/><path class="cls-2" d="M560,960h80v80H620.39C587,1040,560,1004.18,560,960Z" transform="translate(-159.99 -159.99)"/><path class="cls-2" d="M640,1040V960s52.29,25,80,3.14C720,963.14,721.37,1040,640,1040Z" transform="translate(-159.99 -159.99)"/><path class="cls-2" d="M800,960h80s-25,52.29-3.14,80C876.85,1040,800,1041.37,800,960Z" transform="translate(-159.99 -159.99)"/><rect class="cls-1" x="800.01" y="800.01" width="80" height="80"/><path class="cls-4" d="M1440,1040h-80s25-52.29,3.14-80C1363.14,960,1440,958.63,1440,1040Z" transform="translate(-159.99 -159.99)"/><path class="cls-4" d="M1600,1040h-80s25-52.29,3.14-80C1523.14,960,1600,958.63,1600,1040Z" transform="translate(-159.99 -159.99)"/><path class="cls-4" d="M1680,960h80s-25,52.29-3.14,80C1756.85,1040,1680,1041.37,1680,960Z" transform="translate(-159.99 -159.99)"/><path class="cls-2" d="M320,1040v80s-52.29-25-80-3.15C240,1116.85,238.62,1040,320,1040Z" transform="translate(-159.99 -159.99)"/><path class="cls-2" d="M320,1120v-80h80v19.6C400,1093,364.18,1120,320,1120Z" transform="translate(-159.99 -159.99)"/><path class="cls-1" d="M520,1040a40,40,0,1,1-40,40A40,40,0,0,1,520,1040Z" transform="translate(-159.99 -159.99)"/><path class="cls-1" d="M960,1040h80s-25,52.29-3.14,80C1036.85,1120,960,1121.37,960,1040Z" transform="translate(-159.99 -159.99)"/><rect class="cls-4" x="1200.01" y="880.01" width="80" height="80"/><rect class="cls-4" x="1280.01" y="880.01" width="80" height="80"/><rect class="cls-4" x="1360.01" y="880.01" width="80" height="80"/><path class="cls-4" d="M1680,1120h-80v-80h19.6C1653,1040,1680,1075.81,1680,1120Z" transform="translate(-159.99 -159.99)"/><path class="cls-1" d="M440,1120a40,40,0,1,1-40,40A40,40,0,0,1,440,1120Z" transform="translate(-159.99 -159.99)"/><path class="cls-1" d="M640,1120v80H560v-19.6C560,1147,595.81,1120,640,1120Z" transform="translate(-159.99 -159.99)"/><path class="cls-1" d="M640,1200v-80s52.29,25,80,3.14C720,1123.14,721.37,1200,640,1200Z" transform="translate(-159.99 -159.99)"/><path class="cls-2" d="M840,1120a40,40,0,1,1-40,40A40,40,0,0,1,840,1120Z" transform="translate(-159.99 -159.99)"/><path class="cls-1" d="M1080,1120a40,40,0,1,1-40,40A40,40,0,0,1,1080,1120Z" transform="translate(-159.99 -159.99)"/><path class="cls-4" d="M1360,1120h80v80h-19.61C1387,1200,1360,1164.18,1360,1120Z" transform="translate(-159.99 -159.99)"/><rect class="cls-4" x="1280.01" y="960.01" width="80" height="80"/><rect class="cls-4" x="1360.01" y="960.01" width="80" height="80"/><path class="cls-4" d="M1600,1200v-80h80v19.6C1680,1173,1644.18,1200,1600,1200Z" transform="translate(-159.99 -159.99)"/><path class="cls-2" d="M240,1200v80H160v-19.6C160,1227,195.81,1200,240,1200Z" transform="translate(-159.99 -159.99)"/><path class="cls-2" d="M240,1280v-80s52.29,25,80,3.14C320,1203.14,321.37,1280,240,1280Z" transform="translate(-159.99 -159.99)"/><path class="cls-1" d="M560,1200v80H480v-19.6C480,1227,515.81,1200,560,1200Z" transform="translate(-159.99 -159.99)"/><path class="cls-1" d="M560,1280v-80h80v19.6C640,1253,604.18,1280,560,1280Z" transform="translate(-159.99 -159.99)"/><path class="cls-2" d="M760,1200a40,40,0,1,1-40,40A40,40,0,0,1,760,1200Z" transform="translate(-159.99 -159.99)"/><path class="cls-3" d="M960,1200v80s-52.29-25-80-3.15C880,1276.85,878.62,1200,960,1200Z" transform="translate(-159.99 -159.99)"/><path class="cls-3" d="M960,1280v-80s52.29,25,80,3.14C1040,1203.14,1041.37,1280,960,1280Z" transform="translate(-159.99 -159.99)"/><path class="cls-3" d="M1200,1200v80s-52.29-25-80-3.15C1120,1276.85,1118.62,1200,1200,1200Z" transform="translate(-159.99 -159.99)"/><path class="cls-3" d="M1280,1280h-80v-80h19.6C1253,1200,1280,1235.81,1280,1280Z" transform="translate(-159.99 -159.99)"/><path class="cls-4" d="M1440,1200h80v80h-19.61C1467,1280,1440,1244.18,1440,1200Z" transform="translate(-159.99 -159.99)"/><path class="cls-4" d="M1520,1280v-80h80v19.6C1600,1253,1564.18,1280,1520,1280Z" transform="translate(-159.99 -159.99)"/><rect class="cls-2" x="0.01" y="1120.01" width="80" height="80"/><path class="cls-1" d="M480,1280h80s-25,52.29-3.14,80C556.85,1360,480,1361.37,480,1280Z" transform="translate(-159.99 -159.99)"/><path class="cls-2" d="M680,1280a40,40,0,1,1-40,40A40,40,0,0,1,680,1280Z" transform="translate(-159.99 -159.99)"/><path class="cls-3" d="M880,1360H800s25-52.29,3.14-80C803.14,1280,880,1278.63,880,1360Z" transform="translate(-159.99 -159.99)"/><rect class="cls-3" x="1040.01" y="1120.01" width="80" height="80"/><rect class="cls-3" x="1120.01" y="1120.01" width="80" height="80"/><path class="cls-3" d="M1360,1360v-80s52.29,25,80,3.14C1440,1283.14,1441.37,1360,1360,1360Z" transform="translate(-159.99 -159.99)"/><rect class="cls-2" x="0.01" y="1200.01" width="80" height="80"/><path class="cls-2" d="M400,1440H320s25-52.29,3.14-80C323.14,1360,400,1358.63,400,1440Z" transform="translate(-159.99 -159.99)"/><path class="cls-2" d="M600,1360a40,40,0,1,1-40,40A40,40,0,0,1,600,1360Z" transform="translate(-159.99 -159.99)"/><rect class="cls-4" x="640.01" y="1200.01" width="80" height="80"/><path class="cls-3" d="M1040,1440H960s25-52.29,3.14-80C963.14,1360,1040,1358.63,1040,1440Z" transform="translate(-159.99 -159.99)"/><path class="cls-3" d="M1200,1360v80h-80v-19.6C1120,1387,1155.81,1360,1200,1360Z" transform="translate(-159.99 -159.99)"/><path class="cls-3" d="M1200,1440v-80h80v19.6C1280,1413,1244.18,1440,1200,1440Z" transform="translate(-159.99 -159.99)"/><path class="cls-2" d="M160,1440h80s-25,52.29-3.14,80C236.85,1520,160,1521.37,160,1440Z" transform="translate(-159.99 -159.99)"/><path class="cls-2" d="M320,1440h80s-25,52.29-3.14,80C396.85,1520,320,1521.37,320,1440Z" transform="translate(-159.99 -159.99)"/><path class="cls-2" d="M520,1440a40,40,0,1,1-40,40A40,40,0,0,1,520,1440Z" transform="translate(-159.99 -159.99)"/><path class="cls-3" d="M720,1440v80s-52.29-25-80-3.15C640,1516.85,638.62,1440,720,1440Z" transform="translate(-159.99 -159.99)"/><rect class="cls-4" x="560.01" y="1280.01" width="80" height="80"/><rect class="cls-4" x="640.01" y="1280.01" width="80" height="80"/><rect class="cls-4" x="720.01" y="1280.01" width="80" height="80"/><path class="cls-3" d="M960,1520v-80h80v19.6C1040,1493,1004.18,1520,960,1520Z" transform="translate(-159.99 -159.99)"/><path class="cls-3" d="M1120,1440h80s-25,52.29-3.14,80C1196.85,1520,1120,1521.37,1120,1440Z" transform="translate(-159.99 -159.99)"/><path class="cls-4" d="M800,1520h80v80H860.39C827,1600,800,1564.18,800,1520Z" transform="translate(-159.99 -159.99)"/><rect class="cls-4" x="720.01" y="1360.01" width="80" height="80"/><rect class="cls-4" x="720.01" y="1440.01" width="80" height="80"/><rect class="cls-4" x="800.01" y="1440.01" width="80" height="80"/><rect class="cls-4" x="880.01" y="1440.01" width="80" height="80"/><path class="cls-4" d="M1120,1680v-80s52.29,25,80,3.14C1200,1603.14,1201.37,1680,1120,1680Z" transform="translate(-159.99 -159.99)"/><path class="cls-4" d="M880,1680v80H800v-19.6C800,1707,835.81,1680,880,1680Z" transform="translate(-159.99 -159.99)"/><path class="cls-4" d="M880,1760v-80h80v19.6C960,1733,924.18,1760,880,1760Z" transform="translate(-159.99 -159.99)"/><rect class="cls-4" x="880.01" y="1520.01" width="80" height="80"/><rect class="cls-4" x="640.01" y="1600.01" width="80" height="80"/><path class="cls-4" d="M1040,1760v80H960v-19.6C960,1787,995.81,1760,1040,1760Z" transform="translate(-159.99 -159.99)"/><path class="cls-4" d="M1040,1840v-80h80v19.6C1120,1813,1084.18,1840,1040,1840Z" transform="translate(-159.99 -159.99)"/><rect class="cls-4" x="640.01" y="1680.01" width="80" height="80"/><rect class="cls-4" x="720.01" y="1680.01" width="80" height="80"/><path class="cls-4" d="M960,1920v-80h80v19.6C1040,1893,1004.18,1920,960,1920Z" transform="translate(-159.99 -159.99)"/><path class="cls-4" d="M1200,1840v80s-52.29-25-80-3.15C1120,1916.85,1118.62,1840,1200,1840Z" transform="translate(-159.99 -159.99)"/><rect class="cls-4" x="1040.01" y="1680.01" width="80" height="80"/><path class="cls-4" d="M1360,1920h-80v-80h19.6C1333,1840,1360,1875.81,1360,1920Z" transform="translate(-159.99 -159.99)"/><path class="cls-4" d="M800,1920h80v80H860.39C827,2000,800,1964.18,800,1920Z" transform="translate(-159.99 -159.99)"/><rect class="cls-4" x="720.01" y="1760.01" width="80" height="80"/><rect class="cls-4" x="1040.01" y="1760.01" width="80" height="80"/><path class="cls-4" d="M1280,2000v-80h80v19.6C1360,1973,1324.18,2000,1280,2000Z" transform="translate(-159.99 -159.99)"/><path class="cls-4" d="M880,2000h80v80H940.39C907,2080,880,2044.18,880,2000Z" transform="translate(-159.99 -159.99)"/><path class="cls-4" d="M960,2080v-80s52.29,25,80,3.14C1040,2003.14,1041.37,2080,960,2080Z" transform="translate(-159.99 -159.99)"/><path class="cls-4" d="M1200,2000v80h-80v-19.6C1120,2027,1155.81,2000,1200,2000Z" transform="translate(-159.99 -159.99)"/><path class="cls-4" d="M1200,2080v-80h80v19.6C1280,2053,1244.18,2080,1200,2080Z" transform="translate(-159.99 -159.99)"/><path class="cls-3" d="M840,2080a40,40,0,1,1-40,40A40,40,0,0,1,840,2080Z" transform="translate(-159.99 -159.99)"/><path class="cls-4" d="M1120,2080h80s-25,52.29-3.14,80C1196.85,2160,1120,2161.37,1120,2080Z" transform="translate(-159.99 -159.99)"/><path class="cls-3" d="M1880,960a40,40,0,1,1-40,40A40,40,0,0,1,1880,960Z" transform="translate(-159.99 -159.99)"/><path class="cls-3" d="M1840,1120h-80s25-52.29,3.14-80C1763.14,1040,1840,1038.63,1840,1120Z" transform="translate(-159.99 -159.99)"/><path class="cls-3" d="M1760,1120h80s-25,52.29-3.14,80C1836.85,1200,1760,1201.37,1760,1120Z" transform="translate(-159.99 -159.99)"/><path class="cls-3" d="M1760,1280h-80s25-52.29,3.14-80C1683.14,1200,1760,1198.63,1760,1280Z" transform="translate(-159.99 -159.99)"/><path class="cls-3" d="M1920,1280h-80s25-52.29,3.14-80C1843.14,1200,1920,1198.63,1920,1280Z" transform="translate(-159.99 -159.99)"/><path class="cls-3" d="M1680,1280v80s-52.29-25-80-3.15C1600,1356.85,1598.62,1280,1680,1280Z" transform="translate(-159.99 -159.99)"/><rect class="cls-3" x="1520.01" y="1120.01" width="80" height="80"/><rect class="cls-3" x="1600.01" y="1120.01" width="80" height="80"/><path class="cls-3" d="M1840,1360v-80h80v19.6C1920,1333,1884.18,1360,1840,1360Z" transform="translate(-159.99 -159.99)"/><path class="cls-3" d="M1600,1440h-80s25-52.29,3.14-80C1523.14,1360,1600,1358.63,1600,1440Z" transform="translate(-159.99 -159.99)"/><rect class="cls-3" x="1520.01" y="1200.01" width="80" height="80"/><rect class="cls-3" x="1600.01" y="1200.01" width="80" height="80"/><path class="cls-3" d="M1360,1440v80s-52.29-25-80-3.15C1280,1516.85,1278.62,1440,1360,1440Z" transform="translate(-159.99 -159.99)"/><rect class="cls-3" x="1200.01" y="1280.01" width="80" height="80"/><rect class="cls-3" x="1280.01" y="1280.01" width="80" height="80"/><rect class="cls-3" x="1360.01" y="1280.01" width="80" height="80"/><rect class="cls-3" x="1440.01" y="1280.01" width="80" height="80"/><rect class="cls-3" x="1520.01" y="1280.01" width="80" height="80"/><rect class="cls-3" x="1600.01" y="1280.01" width="80" height="80"/><path class="cls-3" d="M1960,1440a40,40,0,1,1-40,40A40,40,0,0,1,1960,1440Z" transform="translate(-159.99 -159.99)"/><rect class="cls-3" x="1280.01" y="1360.01" width="80" height="80"/><rect class="cls-3" x="1600.01" y="1360.01" width="80" height="80"/><path class="cls-3" d="M1840,1600v-80s52.29,25,80,3.14C1920,1523.14,1921.37,1600,1840,1600Z" transform="translate(-159.99 -159.99)"/><rect class="cls-3" x="1280.01" y="1440.01" width="80" height="80"/><path class="cls-3" d="M1640,1600a40,40,0,1,1-40,40A40,40,0,0,1,1640,1600Z" transform="translate(-159.99 -159.99)"/><rect class="cls-3" x="1600.01" y="1440.01" width="80" height="80"/><path class="cls-3" d="M1320,1680a40,40,0,1,1-40,40A40,40,0,0,1,1320,1680Z" transform="translate(-159.99 -159.99)"/><rect class="cls-3" x="1280.01" y="1520.01" width="80" height="80"/><rect class="cls-3" x="1600.01" y="1520.01" width="80" height="80"/><path class="cls-3" d="M1840,1760v-80s52.29,25,80,3.14C1920,1683.14,1921.37,1760,1840,1760Z" transform="translate(-159.99 -159.99)"/><path class="cls-3" d="M1440,1760v80s-52.29-25-80-3.15C1360,1836.85,1358.62,1760,1440,1760Z" transform="translate(-159.99 -159.99)"/><rect class="cls-3" x="1280.01" y="1600.01" width="80" height="80"/><rect class="cls-3" x="1360.01" y="1600.01" width="80" height="80"/><rect class="cls-3" x="1440.01" y="1600.01" width="80" height="80"/><rect class="cls-3" x="1520.01" y="1600.01" width="80" height="80"/><rect class="cls-3" x="1600.01" y="1600.01" width="80" height="80"/><rect class="cls-3" x="1280.01" y="1680.01" width="80" height="80"/><rect class="cls-3" x="1360.01" y="1680.01" width="80" height="80"/><path class="cls-3" d="M1600,1920v-80h80v19.6C1680,1893,1644.18,1920,1600,1920Z" transform="translate(-159.99 -159.99)"/><rect class="cls-3" x="1280.01" y="1760.01" width="80" height="80"/><path class="cls-3" d="M1520,2000v-80h80v19.6C1600,1973,1564.18,2000,1520,2000Z" transform="translate(-159.99 -159.99)"/><path class="cls-3" d="M1440,2000v80s-52.29-25-80-3.15C1360,2076.85,1358.62,2000,1440,2000Z" transform="translate(-159.99 -159.99)"/><path class="cls-3" d="M1440,2080v-80h80v19.6C1520,2053,1484.18,2080,1440,2080Z" transform="translate(-159.99 -159.99)"/><path class="cls-1" d="M1320,2080a40,40,0,1,1-40,40A40,40,0,0,1,1320,2080Z" transform="translate(-159.99 -159.99)"/><path class="cls-4" d="M2080,960h-80s25-52.29,3.14-80C2003.14,880,2080,878.63,2080,960Z" transform="translate(-159.99 -159.99)"/><path class="cls-4" d="M2000,960h80v80h-19.61C2027,1040,2000,1004.18,2000,960Z" transform="translate(-159.99 -159.99)"/><path class="cls-4" d="M2160,1040h-80V960h19.6C2133,960,2160,995.81,2160,1040Z" transform="translate(-159.99 -159.99)"/><rect class="cls-4" x="1920.01" y="880.01" width="80" height="80"/><path class="cls-4" d="M2000,1120v80s-52.29-25-80-3.15C1920,1196.85,1918.62,1120,2000,1120Z" transform="translate(-159.99 -159.99)"/><rect class="cls-4" x="1840.01" y="960.01" width="80" height="80"/><path class="cls-4" d="M2080,1200v-80h80v19.6C2160,1173,2124.18,1200,2080,1200Z" transform="translate(-159.99 -159.99)"/><rect class="cls-4" x="1840.01" y="1040.01" width="80" height="80"/><path class="cls-4" d="M2000,1280h80v80h-19.61C2027,1360,2000,1324.18,2000,1280Z" transform="translate(-159.99 -159.99)"/><path class="cls-4" d="M2160,1360h-80v-80h19.6C2133,1280,2160,1315.81,2160,1360Z" transform="translate(-159.99 -159.99)"/><path class="cls-4" d="M2080,1360h80s-25,52.29-3.14,80C2156.85,1440,2080,1441.37,2080,1360Z" transform="translate(-159.99 -159.99)"/><path class="cls-4" d="M2000,1600v80s-52.29-25-80-3.15C1920,1676.85,1918.62,1600,2000,1600Z" transform="translate(-159.99 -159.99)"/><rect class="cls-4" x="1840.01" y="1440.01" width="80" height="80"/><path class="cls-4" d="M2160,1680h-80v-80h19.6C2133,1600,2160,1635.81,2160,1680Z" transform="translate(-159.99 -159.99)"/><rect class="cls-4" x="1920.01" y="1520.01" width="80" height="80"/><path class="cls-4" d="M2000,1760v80h-80v-19.6C1920,1787,1955.81,1760,2000,1760Z" transform="translate(-159.99 -159.99)"/><rect class="cls-4" x="1840.01" y="1600.01" width="80" height="80"/><rect class="cls-4" x="1920.01" y="1600.01" width="80" height="80"/><path class="cls-4" d="M1760,1840h80v80h-19.61C1787,1920,1760,1884.18,1760,1840Z" transform="translate(-159.99 -159.99)"/><rect class="cls-4" x="1680.01" y="1680.01" width="80" height="80"/><rect class="cls-4" x="1760.01" y="1680.01" width="80" height="80"/><rect class="cls-4" x="1840.01" y="1680.01" width="80" height="80"/><rect class="cls-4" x="1920.01" y="1680.01" width="80" height="80"/><rect class="cls-4" x="1680.01" y="1760.01" width="80" height="80"/><path class="cls-2" d="M1920,2000v-80h80v19.6C2000,1973,1964.18,2000,1920,2000Z" transform="translate(-159.99 -159.99)"/><rect class="cls-4" x="1920.01" y="1760.01" width="80" height="80"/><path class="cls-4" d="M1680,2000v80h-80v-19.6C1600,2027,1635.81,2000,1680,2000Z" transform="translate(-159.99 -159.99)"/><rect class="cls-4" x="1520.01" y="1840.01" width="80" height="80"/><rect class="cls-4" x="1600.01" y="1840.01" width="80" height="80"/><rect class="cls-4" x="1680.01" y="1840.01" width="80" height="80"/><rect class="cls-4" x="1920.01" y="1840.01" width="80" height="80"/><path class="cls-4" d="M1600,2080h80v80h-19.61C1627,2160,1600,2124.18,1600,2080Z" transform="translate(-159.99 -159.99)"/><rect class="cls-4" x="1520.01" y="1920.01" width="80" height="80"/><rect class="cls-4" x="1600.01" y="1920.01" width="80" height="80"/><rect class="cls-4" x="1680.01" y="1920.01" width="80" height="80"/><rect class="cls-4" x="1760.01" y="1920.01" width="80" height="80"/><rect class="cls-4" x="1840.01" y="1920.01" width="80" height="80"/><path class="cls-4" d="M2080,2160v-80h80v19.6C2160,2133,2124.18,2160,2080,2160Z" transform="translate(-159.99 -159.99)"/><rect class="cls-5" x="84.01" y="84.01" width="392" height="392" rx="49.25"/><path class="cls-1" d="M636,160H209.25A49.25,49.25,0,0,0,160,209.25v461.5A49.25,49.25,0,0,0,209.25,720h461.5A49.25,49.25,0,0,0,720,670.75V209.25A49.25,49.25,0,0,0,670.75,160ZM586.75,636H293.25A49.25,49.25,0,0,1,244,586.75V293.25A49.25,49.25,0,0,1,293.25,244h293.5A49.25,49.25,0,0,1,636,293.25v293.5A49.25,49.25,0,0,1,586.75,636Z" transform="translate(-159.99 -159.99)"/><rect class="cls-5" x="1524.01" y="84.01" width="392" height="392" rx="49.25"/><path class="cls-1" d="M2076,160H1649.25A49.25,49.25,0,0,0,1600,209.25v461.5A49.25,49.25,0,0,0,1649.25,720h461.5A49.25,49.25,0,0,0,2160,670.75V209.25A49.25,49.25,0,0,0,2110.75,160Zm-49.25,476h-293.5A49.25,49.25,0,0,1,1684,586.75V293.25A49.25,49.25,0,0,1,1733.25,244h293.5A49.25,49.25,0,0,1,2076,293.25v293.5A49.25,49.25,0,0,1,2026.75,636Z" transform="translate(-159.99 -159.99)"/><rect class="cls-5" x="84.01" y="1524.01" width="392" height="392" rx="49.25"/><path class="cls-1" d="M636,1600H209.25A49.25,49.25,0,0,0,160,1649.25v461.5A49.25,49.25,0,0,0,209.25,2160h461.5A49.25,49.25,0,0,0,720,2110.75v-461.5A49.25,49.25,0,0,0,670.75,1600Zm-49.25,476H293.25A49.25,49.25,0,0,1,244,2026.75v-293.5A49.25,49.25,0,0,1,293.25,1684h293.5A49.25,49.25,0,0,1,636,1733.25v293.5A49.25,49.25,0,0,1,586.75,2076Z" transform="translate(-159.99 -159.99)"/><rect class="cls-2" x="160.01" y="160.01" width="240" height="240" rx="49.25"/><rect class="cls-2" x="1600.01" y="160.01" width="240" height="240" rx="49.25"/><rect class="cls-2" x="160.01" y="1600.01" width="240" height="240" rx="49.25"/></svg>